<?xml version="1.0" encoding="utf-8"?>
<!-- Generator: Adobe Illustrator 22.0.0, SVG Export Plug-In . SVG Version: 6.00 Build 0)  -->
<svg version="1.1" id="Layer_1" xmlns="http://www.w3.org/2000/svg" xmlns:xlink="http://www.w3.org/1999/xlink" x="0px" y="0px"
	 viewBox="0 0 1377 410.5" style="enable-background:new 0 0 1377 410.5;" xml:space="preserve">
<style type="text/css">
	.st0{fill:#FE8D07;}
</style>
<image style="overflow:visible;" width="413" height="413" xlink:href="LogoTrans1.png"  transform="matrix(1 0 0 1 -11 -0.5)">
</image>
<g>
	<rect x="392.6" y="160.6" class="st0" width="960.8" height="13"/>
	<path class="st0" d="M528,147.6c0,0,0.5-13-14.6-20.9c-15.1-7.9-13.4-4.4-16.7-14.3c-3.3-9.9-3.4-11.5-3.4-11.5H506
		c0,0,17.4,10.7,20.4,19.9s9.5,18.4,8.9,25.2C534.8,152.8,528,147.6,528,147.6z"/>
	<polygon class="st0" points="509.8,188.9 509.8,274.2 529.5,285.8 529.5,188.9 	"/>
	<path class="st0" d="M554.2,192.2v81.5l18.4,12.1h2.3v-58.3c0,0,19.4-31.9,31.8-32.2l12.6-0.3c0,0,7.9,2.9,8.2,7.5
		c0.3,4.5-5,15.5-13.8,16.8l-8.9,1.3l14.8,16.8h7.9c0,0,14.5-8.6,14.8-17.8s0-13.5,0-13.5s-10.3-17.1-20.9-17.1h-24.8
		c0,0-18.9,8.7-20.2,11.2c-1.3,2.6-1.5-8.7-1.5-8.7L554.2,192.2z"/>
	<path class="st0" d="M661.7,173.6v76.4c0,0,16.3,35,32.9,34.6c16.6-0.3,27.3,0,27.3,0s17.6-7.9,18.1-13.8c0.5-5.9,8.7,11,17.1,11
		h8.4v-89.6l-22-0.5l-0.3,58c0,0-8.2,26.6-28.6,25.8c-20.4-0.8-29.8-8.4-30.8-27.3s-1.3-74.6-1.3-74.6L661.7,173.6z"/>
	<path class="st0" d="M418.1,123.3v138.4c0,0,3.6,23.8,28.9,24c25.3,0.3,9.2,0,9.2,0s40.9-19.9,27.6-29.9
		c-13.4-10-17.4-21.2-18.4-7.9s-8.7,30.4-15.8,30.4s-12-0.8-11.7-11c0.3-10.2,0-132,0-132L418.1,123.3z"/>
	<path class="st0" d="M800.2,123.3v140.9c0,0,7.5,21.3,24.9,21.5c17.4,0.3,14,0,14,0s38.6-22.6,24.3-31.8
		c-6.1-3.6-11.9-7.7-17.3-12.3c0,0,0.3,35.2-10.6,36.2c-10.9,1-8.9,0.3-8.9,0.3s-9.5,2-8.9-17.4c0.6-19.5,1-125.3,1-125.3
		L800.2,123.3z"/>
	<path class="st0" d="M962.5,172.6v21.3c0,0-7.5-4.3-29.7-4.5c-22.2-0.2-46.8,10.2-47.4,23.8s12.2,36.2,27.2,36.4l15,0.2
		c0,0,24.6-10.2,38.4-9.8c13.8,0.4,10.8,10.4,11.2,11.4c0.4,1-14.7,17.3-32.9,16.3c-18.1-1-27.2-5.9-39-10.4
		c-11.8-4.5-13.8-0.8-13.8-0.8s-4.5,5.7-3,10.4c1.6,4.7,10.4,14,23.6,14.6c5.4,0.5,10.9,0.5,16.3,0c0,0,4.9,3.4,11.2,15.6
		c6.3,12.2,14.2,14.2,14.2,14.2h17.3c0,0,2.4-2.6-4.5-12.2c-6.9-9.6-6.3-8.7-6.3-8.7s-25.8-7.1-14.2-9.5
		c11.6-2.4,25.6-7.5,30.9-14.4c5.3-6.9,4.3-13.6,4.7-21.5c0.4-7.9-8.7-20.5-29.5-20.7c-20.9-0.2-36.4,9.8-41.5,9.6
		c-5.1-0.2-29.5-7.9-9.5-18.3s44.5-8.3,44.5-8.3s21.5,1.8,26.2,5.1c4.7,3.3,3.9-2,3.9-2l0.4-38H962.5z"/>
	<path class="st0" d="M1206.5,172.8v24.4l-38,65.8c0,0-11,10.4-10.6-7.5s0-48.8,0-48.8s-4.1-17.3-18.7-16.9
		c-6.9,0.3-13.8,0.2-20.7-0.2c0,0-15.6,1.6-7.5,10.2c8.1,8.7,9.1,11.2,15.4,5.1c3.9-3.5,9.5-4.5,14.4-2.4c0,0,8.9-0.4-2.7,14
		c-11.6,14.4-0.2,37.2-0.2,37.2s23.2,31.9,31.9,31.7c8.7-0.2,6.7,0,6.7,0s49.8-77.2,49.6-89.4c-0.2-12.2,0-23.2,0-23.2L1206.5,172.8
		z"/>
	<path class="st0" d="M1008.4,172.8v29.7l-6.5,5.9c0,0-3.9,12,12.8,2.9c16.7-9.1,27.4-7.1,27.4-7.1h17.9c0,0,11.6,3.6,11.6,10.5v10
		c0,0,1-4.3-19.1-3.5c-20.1,0.8-22.6,1-22.6,1s-35.6,12-35.8,26.6c-0.2,14.6,0,15.6,0,15.6s7.7,19.7,26.6,19.9
		c18.9,0.2,21.6,0,21.6,0s25-3,28.3-12.4s2.8,5.5,2.8,5.5l14.7,7v-38.1h-15.8c0,0-15.9,26-36.6,26.4c-20.7,0.4-23.6,0.2-23.6,0.2
		s-10-1-10.2-10.2c-0.2-9.3,19.7-28.4,29.9-28.5c10.2-0.2,23.4,0.2,23.4,0.2s14.2,3,15.8,8.9s17.9,6.5,18.1,0.4
		c0.2-6.1,0-31.5,0-31.5s1.4-21.9-30.5-22c-31.9-0.2-34.7,6.3-34.7,6.3v-23.4H1008.4z"/>
	<path class="st0" d="M1264.3,172.8v29.7l-6.5,5.9c0,0-3.9,12,12.8,2.9c16.7-9.1,27.4-7.1,27.4-7.1h17.9c0,0,11.6,3.6,11.6,10.5v10
		c0,0,1-4.3-19.1-3.5c-20.1,0.8-22.6,1-22.6,1s-35.6,12-35.8,26.6c-0.2,14.6,0,15.6,0,15.6s7.7,19.7,26.6,19.9
		c18.9,0.2,21.6,0,21.6,0s25-3,28.3-12.4s2.8,5.5,2.8,5.5l14.7,7v-38.1h-15.8c0,0-15.9,26-36.6,26.4c-20.7,0.4-23.6,0.2-23.6,0.2
		s-10-1-10.2-10.2c-0.2-9.3,19.7-28.4,29.9-28.5c10.2-0.2,23.4,0.2,23.4,0.2s14.2,3,15.8,8.9s17.9,6.5,18.1,0.4
		c0.2-6.1,0-31.5,0-31.5s1.4-21.9-30.5-22c-31.9-0.2-34.7,6.3-34.7,6.3v-23.4H1264.3z"/>
</g>
</svg>
