<?xml version="1.0" encoding="utf-8"?>
<!-- Generator: Adobe Illustrator 22.0.0, SVG Export Plug-In . SVG Version: 6.00 Build 0)  -->
<svg version="1.1" xmlns="http://www.w3.org/2000/svg" xmlns:xlink="http://www.w3.org/1999/xlink" x="0px" y="0px"
	 viewBox="0 0 312 73" style="enable-background:new 0 0 312 73;" xml:space="preserve">
<style type="text/css">
	.st0{fill:#FE8D07;enable-background:new    ;}
	.st1{fill:none;}
</style>
<g id="Layer_1">
	<title>Tirutsava-01</title>
	
		<image style="overflow:visible;enable-background:new    ;" width="305" height="84" xlink:href="B966ECAB.png"  transform="matrix(1 0 0 1 4 3)">
	</image>
	<polygon class="st0" points="41.2,32.2 41.2,59.3 47.5,62.9 47.5,32.2 	"/>
	<path class="st0" d="M47,19.1c0,0,0.2-4.1-4.6-6.6s-4.2-1.4-5.3-4.5S36,4.2,36,4.2h4c0,0,5.5,3.4,6.5,6.3c1,2.9,3,5.8,2.8,8
		C49.1,20.8,47,19.1,47,19.1z"/>
	<path class="st1" d="M67.5,12"/>
	<path class="st0" d="M55.3,33.2v25.9l5.8,3.8h0.7V44.4c0,0,6.2-10.1,10.1-10.2s4-0.1,4-0.1s2.5,0.9,2.6,2.4
		c0.1,1.4-1.5,4.9-4.4,5.3c-2.8,0.4-2.8,0.4-2.8,0.4l4.7,5.3h2.5c0,0,4.6-2.7,4.7-5.7c0.1-2.9,0-4.3,0-4.3s-3.2-5.4-6.6-5.4
		s-7.9,0-7.9,0s-6,2.8-6.4,3.6S61.9,33,61.9,33L55.3,33.2z"/>
	<path class="st0" d="M89.4,27.3v24.2c0,0,5.2,11.1,10.5,11s8.7,0,8.7,0s5.6-2.5,5.8-4.4c0.2-1.9,2.8,3.5,5.4,3.5c2.7,0,2.7,0,2.7,0
		V33.2l-7-0.2l-0.1,18.4c0,0-2.6,8.4-9.1,8.2S96.8,57,96.5,51s-0.4-23.7-0.4-23.7H89.4z"/>
</g>
<g id="Layer_2">
	<path class="st0" d="M12.1,11.4v43.9c0,0,1.1,7.5,9.2,7.6s2.9,0,2.9,0s13-6.3,8.8-9.5s-5.5-6.7-5.8-2.5c-0.3,4.2-2.8,9.6-5,9.6
		s-3.8-0.2-3.7-3.5c0.1-3.2,0-41.9,0-41.9L12.1,11.4z"/>
</g>
</svg>
