<?xml version="1.0" encoding="utf-8"?>
<!-- Generator: Adobe Illustrator 22.0.0, SVG Export Plug-In . SVG Version: 6.00 Build 0)  -->
<svg version="1.1" id="Capa_1" xmlns="http://www.w3.org/2000/svg" xmlns:xlink="http://www.w3.org/1999/xlink" x="0px" y="0px"
	 viewBox="0 0 512 512" style="enable-background:new 0 0 512 512;" xml:space="preserve">
<style type="text/css">
	.st0{fill:#F84477;}
</style>
<g>
	<g>
		<g>
			<path class="st0" d="M256,512c-23.6,0-46.3-3.1-68.1-9.2c-21.8-6.1-42.2-14.8-61.2-25.9S90.5,452.5,75,437
				c-15.5-15.5-28.8-32.8-39.9-51.7C24,366.3,15.4,345.9,9.2,324.1C3.1,302.3,0,279.6,0,256s3.1-46.3,9.2-68.1s14.8-42.2,25.9-61.2
				S59.5,90.5,75,75s32.8-28.8,51.7-39.9s39.3-19.7,61.2-25.9S232.4,0,256,0c35.2,0,68.4,6.7,99.6,20.2S414,52,437,75
				c23,23,41.3,50.2,54.8,81.4S512,220.8,512,256c0,23.6-3.1,46.3-9.2,68.1c-6.1,21.8-14.8,42.2-25.9,61.2
				c-11.1,18.9-24.4,36.2-39.9,51.7c-15.5,15.5-32.8,28.8-51.7,39.9c-18.9,11.1-39.3,19.7-61.2,25.9C302.3,508.9,279.6,512,256,512z
				 M379.4,150.5H136.7c-2.4,0-4.4,0.8-6.1,2.3c-1.7,1.5-2.6,3.7-2.6,6.4v27.1c0,1.4,0.5,2,1.5,2L257,261.1l1,0.5
				c0.7,0,1.2-0.2,1.5-0.5L383,188.4c0.7-0.3,1.2-0.5,1.5-0.5c0.3,0,0.9-0.2,1.5-0.5c1.4,0,2-0.7,2-2v-26.1c0-2.7-0.9-4.9-2.6-6.4
				C383.8,151.3,381.8,150.5,379.4,150.5z M205.3,259.6c0.3-0.3,0.5-0.9,0.5-1.5c0-1-0.3-1.5-1-1.5l-73.2-42c-1-0.3-1.9-0.3-2.6,0
				c-0.7,0-1,0.5-1,1.5v110.1c0,1,0.5,1.7,1.5,2h1c0.7,0,1-0.2,1-0.5L205.3,259.6z M294.4,267.8c-0.3-1-1.2-1.2-2.6-0.5l-28.2,16.4
				c-3.4,2-7,2-10.8,0l-24.6-13.8c-1-0.7-1.9-0.7-2.6,0l-93.7,87c-0.3,0.3-0.5,1-0.5,2c0,0.3,0.3,0.9,1,1.5c2,0.7,3.4,1,4.1,1h240.1
				c0.7,0,1.4-0.3,2-1c0-1.4-0.2-2.2-0.5-2.6L294.4,267.8z M386.6,212.5h-2L314.9,254c-0.7,0-1,0.5-1,1.5c-0.3,0.3-0.2,0.9,0.5,1.5
				l69.6,75.3c0.7,0.7,1.2,1,1.5,1h1c1-1,1.5-1.7,1.5-2V214.5C388.1,213.8,387.6,213.2,386.6,212.5z"/>
		</g>
	</g>
</g>
</svg>
