<?xml version="1.0" encoding="utf-8"?>
<!-- Generator: Adobe Illustrator 22.0.0, SVG Export Plug-In . SVG Version: 6.00 Build 0)  -->
<svg version="1.1" id="Capa_1" xmlns="http://www.w3.org/2000/svg" xmlns:xlink="http://www.w3.org/1999/xlink" x="0px" y="0px"
	 viewBox="0 0 75.2 74.9" style="enable-background:new 0 0 75.2 74.9;" xml:space="preserve">
<style type="text/css">
	.st0{fill:#F84477;}
</style>
<g>
	<g>
		<g>
			<path class="st0" d="M37.5,75.1c-3.5,0-6.8-0.5-10-1.4c-3.2-0.9-6.2-2.2-9-3.8c-2.8-1.6-5.3-3.6-7.6-5.9
				c-2.3-2.3-4.2-4.8-5.9-7.6c-1.6-2.8-2.9-5.8-3.8-9C0.5,44.3,0,41,0,37.5s0.5-6.8,1.4-10s2.2-6.2,3.8-9S8.7,13.3,11,11
				s4.8-4.2,7.6-5.9s5.8-2.9,9-3.8S34.1,0,37.5,0c5.2,0,10,1,14.6,3s8.6,4.7,11.9,8c3.4,3.4,6.1,7.4,8,11.9s3,9.4,3,14.6
				c0,3.5-0.5,6.8-1.4,10c-0.9,3.2-2.2,6.2-3.8,9c-1.6,2.8-3.6,5.3-5.9,7.6c-2.3,2.3-4.8,4.2-7.6,5.9c-2.8,1.6-5.8,2.9-9,3.8
				C44.3,74.6,41,75.1,37.5,75.1z M55.6,22.1H20.1c-0.4,0-0.7,0.1-0.9,0.3c-0.3,0.2-0.4,0.5-0.4,0.9v4c0,0.2,0.1,0.3,0.2,0.3
				l18.7,10.7l0.2,0.1c0.1,0,0.2,0,0.2-0.1l18.1-10.7c0.1-0.1,0.2-0.1,0.2-0.1c0,0,0.1,0,0.2-0.1c0.2,0,0.3-0.1,0.3-0.3v-3.8
				c0-0.4-0.1-0.7-0.4-0.9S56,22.1,55.6,22.1z M30.1,38.1c0.1-0.1,0.1-0.1,0.1-0.2c0-0.2-0.1-0.2-0.2-0.2l-10.7-6.2
				c-0.2-0.1-0.3-0.1-0.4,0c-0.1,0-0.2,0.1-0.2,0.2v16.1c0,0.2,0.1,0.3,0.2,0.3h0.2c0.1,0,0.2,0,0.2-0.1L30.1,38.1z M43.2,39.3
				c-0.1-0.2-0.2-0.2-0.4-0.1l-4.1,2.4c-0.5,0.3-1,0.3-1.6,0l-3.6-2c-0.2-0.1-0.3-0.1-0.4,0L19.4,52.3c-0.1,0-0.1,0.2-0.1,0.3
				c0,0.1,0.1,0.1,0.2,0.2c0.3,0.1,0.5,0.2,0.6,0.2h35.2c0.1,0,0.2-0.1,0.3-0.2c0-0.2,0-0.3-0.1-0.4L43.2,39.3z M56.7,31.2h-0.3
				l-10.2,6.1c-0.1,0-0.2,0.1-0.2,0.2c-0.1,0.1,0,0.1,0.1,0.2l10.2,11c0.1,0.1,0.2,0.2,0.2,0.2h0.2c0.2-0.2,0.2-0.3,0.2-0.3V31.5
				C56.9,31.4,56.8,31.3,56.7,31.2z"/>
		</g>
	</g>
</g>
</svg>
